<?xml version="1.0" encoding="UTF-8"?>
<svg width="33px" height="33px" viewBox="0 0 33 33" version="1.1" xmlns="http://www.w3.org/2000/svg" xmlns:xlink="http://www.w3.org/1999/xlink">
    <!-- Generator: Sketch 63.1 (92452) - https://sketch.com -->
    <title>logo/icon</title>
    <desc>Created with Sketch.</desc>
    <g id="logo/icon" stroke="none" stroke-width="1" fill="none" fill-rule="evenodd">
        <path d="M7.66259111,5.70819844 C7.66259111,5.70819844 14.7204705,12.3879468 19.388448,13.4837468 C26.2719115,15.1013777 30.0601998,11.6420479 32.6545071,10.4083311 C28.852716,16.3813402 22.6402096,16.9871593 22.6402096,16.9871593 C22.6402096,16.9871593 21.9964072,19.0420362 20.9131332,20.6976333 C26.2020108,22.9590496 29.6561635,29.1805922 30.4468542,30.7208734 C30.9405604,31.6489208 31.3736163,32.5849494 31.3695133,32.9907929 L28.3431945,32.9907929 C28.3431945,32.9907929 27.7014064,31.1526743 25.7412034,29.0606517 L25.759033,29.0579665 C24.2779891,27.4777797 21.6437706,25.2673829 17.7427609,24.140628 C17.1011219,24.7019169 16.0192653,26.4649981 10.8024519,26.425018 C6.66279511,26.392273 3.10509692,23.5350327 1.81398594,22.357333 C0.947594294,21.6113856 0.0902244645,20.6760744 0.00665346072,20.5844082 L-6.96331881e-13,20.5770961 L1.47455363,18.5824133 L1.56076956,18.6684885 C1.85646144,18.9609175 2.88059116,19.9514033 4.1317491,20.9094686 C5.69992636,22.0747119 8.33145925,23.3117106 10.6829418,22.3803812 C14.6630281,20.7999707 15.1451712,17.1173933 13.0125665,14.4565482 C11.0869036,12.0534857 8.01179608,8.67053588 8.01179608,8.67053588 C8.01179608,8.67053588 7.29645182,6.89716127 7.66259111,5.70819844 Z M21.3548677,5.21611237 C23.2007826,5.21611237 24.6969704,6.71216177 24.6969704,8.55751563 C24.6969704,10.4027949 23.2007826,11.8993664 21.3548677,11.8993664 C19.5092511,11.8993664 18.0129142,10.4027949 18.0129142,8.55751563 C18.0129142,6.71216177 19.5092511,5.21611237 21.3548677,5.21611237 Z M20.8599928,0.0953010996 C26.5250807,0.770339594 29.6427851,4.17738195 31.4267816,7.26779023 C23.5018951,0.41730565 17.4661919,0.828743477 9.44939759,4.14523371 C10.2564259,3.54829083 14.3318516,-0.683417341 20.8599928,0.0953010996 Z" id="Combined-Shape" fill="#2079CA" fill-rule="nonzero"></path>
    </g>
</svg>